# xmcd
#
# Track frame offsets:
#	150
#	16658
#	36053
#	51761
#	60628
#	74203
#	91568
#	110020
#	123202
#	138536
#	151934
#	171508
#	183050
#
# Disc length: 2728 seconds
# Revision: 0
# Processed by: cddbd v1.5.2PL0 Copyright (c) Steve Scherf et al.
# Submitted via: dBpowerAMP V12.0
#
DISCID=a90aa60d
DTITLE=Michael Cleveland - Fiddler's Dream
DYEAR=2016
DGENRE=Bluegrass
TTITLE0=Fiddler's Dream
TTITLE1=Henryville
TTITLE2=Steamboat Whistle Blues
TTITLE3=Tall Timber
TTITLE4=Blues For Bill
TTITLE5=Where Is Your Heart Tonight ?
TTITLE6=Sunday Drive
TTITLE7=Unwanted Love
TTITLE8=Lonesome Desert
TTITLE9=Earl Park
TTITLE10=I Knew Her Yesterday
TTITLE11=Northeast Seaboard Blues
TTITLE12=Nashville Storms
EXTD=
EXTT0=
EXTT1=
EXTT2=
EXTT3=
EXTT4=
EXTT5=
EXTT6=
EXTT7=
EXTT8=
EXTT9=
EXTT10=
EXTT11=
EXTT12=
PLAYORDER=
